P3
64 48
255
255 128 0 255 128 0 255 128 0 255 128 0 255 128 0 255 128 0 255 128 0 255 128 0 255 128 0 255 128 0 255 128 0 255 128 0 255 128 0 255 128 0 255 128 0 255 128 0 255 128 0 255 128 0 255 128 0 255 128 0 255 128 0 255 128 0 255 128 0 255 128 0 255 128 0 255 128 0 255 128 0 255 128 0 255 128 0 255 128 0 255 128 0 255 128 0 255 128 0 255 128 0 255 128 0 255 128 0 255 128 0 255 128 0 255 128 0 255 128 0 255 128 0 255 128 0 255 128 0 255 128 0 255 128 0 255 128 0 255 128 0 255 128 0 255 128 0 255 128 0 255 128 0 255 128 0 255 128 0 255 128 0 255 128 0 255 128 0 255 128 0 255 128 0 255 128 0 255 128 0 255 128 0 255 128 0 255 128 0 255 128 0 255 128 0 255 128 0 255 128 0 255 128 0 255 128 0 255 128 0 255 128 0 255 128 0 255 128 0 255 128 0 255 128 0 255 128 0 255 128 0 255 128 0 255 128 0 255 128 0 255 128 0 255 128 0 255 128 0 255 128 0 255 128 0 255 128 0 255 128 0 255 128 0 255 128 0 255 128 0 255 128 0 255 128 0 255 128 0 255 128 0 255 128 0 255 128 0 255 128 0 255 128 0 255 128 0 255 128 0 255 128 0 255 128 0 255 128 0 255 128 0 255 128 0 255 128 0 255 128 0 255 128 0 255 128 0 255 128 0 255 128 0 255 128 0 255 128 0 255 128 0 255 128 0 255 128 0 255 128 0 255 128 0 255 128 0 255 128 0 255 128 0 255 128 0 255 128 0 255 128 0 255 128 0 255 128 0 255 128 0 255 128 0 255 128 0 255 128 0 255 128 255 255 128 0 255 128 0 255 128 0 255 128 0 255 128 0 255 128 0 255 128 0 255 128 0 255 128 0 255 128 0 255 128 0 255 128 0 255 128 0 255 128 0 255 128 0 255 128 0 255 128 0 255 128 0 255 128 0 255 128 0 255 128 0 255 128 0 255 128 0 255 128 0 255 128 0 255 128 0 255 128 0 255 128 0 255 128 0 255 128 0 255 128 0 255 128 0 255 128 0 255 128 0 255 128 0 255 128 0 255 128 0 255 128 0 255 128 0 255 128 0 255 128 0 255 128 0 255 128 0 255 128 0 255 128 0 255 128 0 255 128 0 255 128 0 255 128 0 255 128 0 255 128 0 255 128 0 255 128 0 255 128 0 255 128 0 255 128 0 255 128 0 255 128 0 255 128 0 255 128 0 255 128 0 255 128 0 255 128 0 255 128 0 255 128 0 255 128 0 255 128 0 255 128 0 255 128 0 255 128 0 255 128 0 255 128 0 255 128 0 255 128 0 255 128 0 255 128 0 255 128 0 255 128 0 255 128 0 255 128 0 255 128 0 255 128 0 255 128 0 255 128 0 255 128 0 255 128 0 255 128 0 255 128 0 255 128 0 255 128 0 255 128 0 255 128 0 255 128 0 255 128 0 255 128 0 255 128 0 255 128 0 255 128 0 255 128 0 255 128 0 255 128 0 255 128 0 255 128 0 255 128 0 255 128 0 255 128 0 255 128 0 255 128 0 255 128 0 255 128 0 255 128 0 255 128 0 255 128 0 255 128 0 255 128 0 255 128 0 255 128 0 255 128 0 255 128 0 255 128 0 255 128 0 255 128 0 255 128 0 255 128 0 255 128 0 255 128 0 255 128 0 255 128 0 255 128 0 255 128 0 255 128 0 255 128 0 255 128 0 255 128 0 255 128 0 255 128 0 255 128 0 255 128 0 255 128 0 255 128 0 255 128 0 255 128 0 255 128 0 255 128 0 255 128 0 255 128 0 255 128 0 255 128 0 255 128 0 255 128 0 255 128 0 255 128 0 255 128 0 255 128 0 255 128 0 255 128 0 255 128 0 255 128 0 255 128 0 255 128 0 255 128 0 255 128 0 255 128 0 255 128 0 255 128 0 255 128 0 255 128 0 255 128 0 255 128 0 255 128 0 255 128 0 255 128 0 255 128 0 255 128 0 255 128 0 255 128 0 255 128 0 255 128 0 255 128 0 255 128 0 255 128 0 255 128 0 255 128 0 255 128 0 255 128 0 255 128 0 255 128 0 255 128 0 255 128 0 255 128 0 255 128 0 255 128 0 255 128 0 255 128 0 255 128 0 255 128 0 255 128 0 255 128 0 255 128 0 255 128 255 255 128 255 255 128 255 255 128 255 255 128 255 255 128 255 255 128 255 255 128 255 255 128 255 255 128 255 255 128 255 255 128 255 255 128 255 255 128 255 255 128 255 255 128 255 255 128 0 255 128 0 255 128 0 255 128 0 255 128 0 255 128 0 255 128 0 255 128 0 255 128 0 255 128 0 255 128 0 255 128 0 255 128 0 255 128 0 255 128 0 255 128 0 255 128 0 255 128 0 255 128 0 255 128 0 255 128 0 255 128 0 255 128 0 255 128 0 255 128 0 255 128 0 255 128 0 255 128 0 255 128 0 255 128 0 255 128 0 255 128 0 255 128 0 255 128 0 255 128 0 255 128 0 255 128 0 255 128 0 255 128 0 255 128 0 255 128 0 255 128 0 255 128 0 255 128 0 255 128 0 255 128 0 255 128 0 255 128 0 255 128 255 255 128 255 255 128 255 255 128 255 255 128 255 255 128 255 255 128 255 255 128 255 255 128 255 255 128 255 255 128 255 255 128 255 255 128 255 255 128 255 255 128 255 255 128 255 255 128 0 255 128 0 255 128 0 255 128 0 255 128 0 255 128 0 255 128 0 255 128 0 255 128 0 255 128 0 255 128 0 255 128 0 255 128 0 255 128 0 255 128 0 255 128 0 255 128 0 255 128 0 255 128 0 255 128 0 255 128 0 255 128 0 255 128 0 255 128 0 255 128 0 255 128 0 255 128 0 255 128 0 255 128 0 255 128 0 255 128 0 255 128 0 255 128 0 255 128 0 255 128 0 255 128 0 255 128 0 255 128 0 255 128 0 255 128 0 255 128 0 255 128 0 255 128 0 255 128 0 255 128 0 255 128 0 255 128 0 255 128 0 255 128 255 255 128 255 255 128 255 255 128 255 255 128 255 255 128 255 255 128 255 255 128 255 255 128 255 255 128 255 255 128 255 255 128 255 255 128 255 255 128 255 255 128 255 255 128 255 255 128 0 255 128 0 255 128 0 255 128 0 255 128 0 255 128 0 255 128 0 255 128 0 255 128 0 255 128 0 255 128 0 255 128 0 255 128 0 255 128 0 255 128 0 255 128 0 255 128 0 255 128 0 255 128 0 255 128 0 255 128 0 255 128 0 255 128 0 255 128 0 255 128 0 255 128 0 255 128 0 255 128 0 255 128 0 255 128 0 255 128 0 255 128 0 255 128 0 255 128 0 255 128 0 255 128 0 255 128 0 255 128 0 255 128 0 255 128 0 255 128 0 255 128 0 255 128 0 255 128 0 255 128 0 255 128 0 255 128 0 255 128 0 255 128 255 255 128 255 255 128 255 255 128 255 255 128 255 255 128 255 255 128 255 255 128 255 255 128 255 255 128 255 255 128 255 255 128 255 255 128 255 255 128 255 255 128 255 255 128 255 255 128 0 255 128 0 255 128 0 255 128 0 255 128 0 255 128 0 255 128 0 255 128 0 255 128 0 255 128 0 255 128 0 255 128 0 255 128 0 255 128 0 255 128 0 255 128 0 255 128 0 255 128 0 255 128 0 255 128 0 255 128 0 255 128 0 255 128 0 255 128 0 255 128 0 255 128 0 255 128 0 255 128 0 255 128 0 255 128 0 255 128 0 255 128 0 255 128 0 255 128 0 255 128 0 255 128 0 255 128 0 255 128 0 255 128 0 255 128 0 255 128 0 255 128 0 255 128 0 255 128 0 255 128 0 255 128 0 255 128 0 255 128 0 255 128 255 255 128 255 255 128 255 255 128 255 255 128 255 255 128 255 255 128 255 255 128 255 255 128 255 255 128 255 255 128 255 255 128 255 255 128 255 255 128 255 255 128 255 255 128 255 255 128 0 255 128 0 255 128 0 255 128 0 255 128 0 255 128 0 255 128 0 255 128 0 255 128 0 255 128 0 255 128 0 255 128 0 255 128 0 255 128 0 255 128 0 255 128 0 255 128 0 255 128 0 255 128 0 255 128 0 255 128 0 255 128 0 255 128 0 255 128 0 255 128 0 255 128 0 255 128 0 255 128 0 255 128 0 255 128 0 255 128 0 255 128 0 255 128 0 255 128 0 255 128 0 255 128 0 255 128 0 255 128 0 255 128 0 255 128 0 255 128 0 255 128 0 255 128 0 255 128 0 255 128 0 255 128 0 255 128 0 255 128 0 255 128 255 255 128 255 255 128 255 255 128 255 255 128 255 255 128 255 255 128 255 255 128 255 255 128 255 255 128 255 255 128 255 255 128 255 255 128 255 255 128 255 255 128 255 255 128 255 255 128 0 255 128 0 255 128 0 255 128 0 255 128 0 255 128 0 255 128 0 255 128 0 255 128 0 255 128 0 255 128 0 255 128 0 255 128 0 255 128 0 255 128 0 255 128 0 255 128 0 255 128 0 255 128 0 255 128 0 255 128 0 255 128 0 255 128 0 255 128 0 255 128 0 255 128 0 255 128 0 255 128 0 255 128 0 255 128 0 255 128 0 255 128 0 255 128 0 255 128 0 255 128 0 255 128 0 255 128 0 255 128 0 255 128 0 255 128 0 255 128 0 255 128 0 255 128 0 255 128 0 255 128 0 255 128 0 255 128 0 255 128 0 255 128 0 255 128 0 255 128 0 255 128 0 255 128 0 255 128 0 255 128 0 255 128 0 255 128 0 255 128 0 255 128 0 255 128 0 255 128 0 255 128 0 255 128 0 255 128 0 255 128 0 255 128 0 255 128 0 255 128 0 255 128 0 255 128 0 255 128 0 255 128 0 255 128 0 255 128 0 255 128 0 255 128 0 255 128 0 255 128 0 255 128 0 255 128 0 255 128 0 255 128 0 255 128 0 255 128 0 255 128 0 255 128 0 255 128 0 255 128 0 255 128 0 255 128 0 255 128 0 255 128 0 255 128 0 255 128 0 255 128 0 255 128 0 255 128 0 255 128 0 255 128 0 255 128 0 255 128 0 255 128 0 255 128 0 255 128 0 255 128 0 255 128 0 255 128 0 255 128 0 255 128 0 255 128 0 255 128 0 255 128 0 255 128 0 255 128 0 255 128 0 255 128 0 255 128 0 255 128 0 255 128 0 255 128 0 255 128 0 255 128 0 255 128 0 255 128 0 255 128 0 255 128 0 255 128 0 255 128 0 255 128 0 255 128 0 255 128 0 255 128 0 255 128 0 255 128 0 255 128 0 255 128 0 255 128 0 255 128 0 255 128 0 255 128 0 255 128 0 255 128 0 255 128 0 255 128 0 255 128 0 255 128 0 255 128 0 255 128 0 255 128 0 255 128 0 255 128 0 255 128 0 255 128 0 255 128 0 255 128 0 255 128 0 255 128 0 255 128 0 255 128 0 255 128 0 255 128 0 255 128 0 255 128 0 255 128 0 255 128 0 255 128 0 255 128 0 255 128 0 255 128 0 255 128 0 255 128 0 255 128 0 255 128 0 255 128 0 255 128 0 255 128 0 255 128 0 255 128 0 255 128 0 255 128 0 255 128 0 255 128 0 255 128 0 255 128 0 255 128 0 255 128 0 255 128 0 255 128 0 255 128 0 255 128 0 255 128 0 255 128 0 255 128 0 255 128 0 255 128 0 255 128 0 255 128 0 255 128 0 255 128 0 255 128 0 255 128 0 255 128 0 255 128 0 255 128 0 255 128 0 255 128 0 255 128 0 255 128 0 255 128 0 255 128 0 255 128 0 255 128 0 255 128 0 255 128 0 255 128 0 255 128 0 255 128 0 255 128 0 255 128 0 255 128 0 255 128 0 255 128 0 255 128 0 255 128 0 255 128 0 255 128 0 255 128 0 255 128 0 255 128 0 255 128 0 255 128 0 255 128 0 255 128 0 255 128 0 255 128 0 255 128 0 255 128 0 255 128 0 255 128 0 255 128 0 255 128 0 255 128 0 255 128 0 255 128 0 255 128 0 255 128 0 255 128 0 255 128 0 255 128 0 255 128 0 255 128 0 255 128 0 255 128 0 255 128 0 255 128 0 255 128 0 255 128 0 255 128 0 255 128 0 255 128 0 255 128 0 255 128 0 255 128 0 255 128 0 255 128 0 255 128 0 255 128 0 255 128 0 255 128 0 255 128 0 255 128 0 255 128 0 255 128 0 255 128 0 255 128 0 255 128 0 255 128 0 255 128 0 255 128 0 255 128 0 255 128 0 255 128 0 255 128 0 255 128 0 255 128 0 255 128 0 255 128 0 255 128 0 255 128 0 255 128 0 255 128 0 255 128 0 255 128 0 255 128 0 255 128 0 255 128 0 255 128 0 255 128 0 255 128 0 255 128 0 255 128 0 255 128 0 255 128 0 255 128 0 255 128 0 255 128 0 255 128 0 255 128 0 255 128 0 255 128 0 255 128 0 255 128 0 255 128 0 255 128 0 255 128 0 255 128 0 255 128 0 255 128 0 255 128 0 255 128 0 255 128 0 255 128 0 255 128 0 255 128 0 255 128 0 255 128 0 255 128 0 255 128 0 255 128 0 255 128 0 255 128 0 255 128 0 255 128 0 255 128 0 255 128 0 255 128 0 255 128 0 255 128 0 255 128 0 255 128 0 255 128 0 255 128 0 255 128 0 255 128 0 255 128 0 255 128 0 255 128 0 255 128 0 255 128 0 255 128 0 255 128 0 255 128 0 255 128 0 255 128 0 255 128 0 255 128 0 255 128 0 255 128 0 255 128 0 255 128 0 255 128 0 255 128 0 255 128 0 255 128 0 255 128 0 255 128 0 255 128 0 255 128 0 255 128 0 255 128 0 255 128 0 255 128 0 255 128 0 255 128 0 255 128 0 255 128 0 255 128 0 255 128 0 255 128 0 255 128 0 255 128 0 255 128 0 255 128 0 255 128 0 255 128 0 255 128 0 255 128 0 255 128 0 255 128 0 255 128 0 255 128 0 255 128 0 255 128 0 255 128 0 255 128 0 255 128 0 255 128 0 255 128 0 255 128 0 255 128 0 255 128 0 255 128 0 255 128 0 255 128 0 255 128 0 255 128 0 255 128 0 255 128 0 255 128 0 255 128 0 255 128 0 255 128 0 255 128 0 255 128 0 255 128 0 255 128 0 255 128 0 255 128 0 255 128 0 255 128 0 255 128 0 255 128 0 255 128 0 255 128 0 255 128 0 255 128 0 255 128 0 255 128 0 255 128 0 255 128 0 255 128 0 255 128 0 255 128 0 255 128 0 255 128 0 255 128 0 255 128 0 255 128 0 255 128 0 255 128 0 255 128 0 255 128 0 255 128 0 255 128 0 255 128 0 255 128 0 255 128 0 255 128 0 255 128 0 255 128 0 255 128 0 255 128 0 255 128 0 255 128 0 255 128 0 255 128 0 255 128 0 255 128 0 255 128 0 255 128 0 255 128 0 255 128 0 255 128 0 255 128 0 255 128 0 255 128 0 255 128 0 255 128 0 255 128 0 255 128 0 255 128 0 255 128 0 255 128 0 255 128 0 255 128 0 255 128 0 255 128 0 255 128 0 255 128 0 255 128 0 255 128 0 255 128 0 255 128 0 255 128 0 255 128 0 255 128 0 255 128 0 255 128 0 255 128 0 255 128 0 255 128 0 255 128 0 255 128 0 255 128 0 255 128 0 255 128 0 255 128 0 255 128 0 255 128 0 255 128 0 255 128 0 255 128 0 255 128 0 255 128 0 255 128 0 255 128 0 255 128 0 255 128 0 255 128 0 255 128 0 255 128 0 255 128 0 255 128 0 255 128 0 255 128 0 255 128 0 255 128 0 255 128 0 255 128 0 255 128 0 255 128 0 255 128 0 255 128 0 255 128 0 255 128 0 255 128 0 255 128 0 255 128 0 255 128 0 255 128 0 255 128 0 255 128 0 255 128 0 255 128 0 255 128 0 255 128 0 255 128 0 255 128 0 255 128 0 255 128 0 255 128 0 255 128 0 255 128 0 255 128 0 255 128 0 255 128 0 255 128 0 255 128 0 255 128 0 255 128 0 255 128 0 255 128 0 255 128 0 255 128 0 255 128 0 255 128 0 255 128 0 255 128 0 255 128 0 255 128 0 255 128 0 255 128 0 255 128 0 255 128 0 255 128 0 255 128 0 255 128 0 255 128 0 255 128 0 255 128 0 255 128 0 255 128 0 255 128 0 255 128 0 255 128 0 255 128 0 255 128 0 255 128 0 255 128 0 255 128 0 255 128 0 255 128 0 255 128 0 255 128 0 255 128 0 255 128 0 255 128 0 255 128 0 255 128 0 255 128 0 255 128 0 255 128 0 255 128 0 255 128 0 255 128 0 255 128 0 255 128 0 255 128 0 255 128 0 255 128 0 255 128 0 255 128 0 255 128 0 255 128 0 255 128 0 255 128 0 255 128 0 255 128 0 255 128 0 255 128 0 255 128 0 255 128 0 255 128 0 255 128 0 255 128 0 255 128 0 255 128 0 255 128 0 255 128 0 255 128 0 255 128 0 255 128 0 255 128 0 255 128 0 255 128 0 255 128 0 255 128 0 255 128 0 255 128 0 255 128 0 255 128 0 255 128 0 255 128 0 255 128 0 255 128 0 255 128 0 255 128 0 255 128 0 255 128 0 255 128 0 255 128 0 255 128 0 255 128 0 255 128 0 255 128 0 255 128 0 255 128 0 255 128 0 255 128 0 255 128 0 255 128 0 255 128 0 255 128 0 255 128 0 255 128 0 255 128 0 255 128 0 255 128 0 255 128 0 255 128 0 255 128 0 255 128 0 255 128 0 255 128 0 255 128 0 255 128 0 255 128 0 255 128 0 255 128 0 255 128 0 255 128 0 255 128 0 255 128 0 255 128 0 255 128 0 255 128 0 255 128 0 255 128 0 255 128 0 255 128 0 255 128 0 255 128 0 255 128 0 255 128 0 255 128 0 255 128 0 255 128 0 255 128 0 255 128 0 255 128 0 255 128 0 255 128 0 255 128 0 255 128 0 255 128 0 255 128 0 255 128 0 255 128 0 255 128 0 255 128 0 255 128 0 255 128 0 255 128 0 255 128 0 255 128 0 255 128 0 255 128 0 255 128 0 255 128 0 255 128 0 255 128 0 255 128 0 255 128 0 255 128 0 255 128 0 255 128 0 255 128 0 255 128 0 255 128 0 255 128 0 255 128 0 255 128 0 255 128 0 255 128 0 255 128 0 255 128 0 255 128 0 255 128 0 255 128 0 255 128 0 255 128 0 255 128 0 255 128 0 255 128 0 255 128 0 255 128 0 255 128 0 255 128 0 255 128 0 255 128 0 255 128 0 255 128 0 255 128 0 255 128 0 255 128 0 255 128 0 255 128 0 255 128 0 255 128 0 255 128 0 255 128 0 255 128 0 255 128 0 255 128 0 255 128 0 255 128 0 255 128 0 255 128 0 255 128 0 255 128 0 255 128 0 255 128 0 255 128 0 255 128 0 255 128 0 255 128 0 255 128 0 255 128 0 255 128 0 255 128 0 255 128 0 255 128 0 255 128 0 255 128 0 255 128 0 255 128 0 255 128 0 255 128 0 255 128 0 255 128 0 255 128 0 255 128 0 255 128 0 255 128 0 255 128 0 255 128 0 255 128 0 255 128 0 255 128 0 255 128 0 255 128 0 255 128 0 255 128 0 255 128 0 255 128 0 255 128 0 255 128 0 255 128 0 255 128 0 255 128 0 255 128 0 255 128 0 255 128 0 255 128 0 255 128 0 255 128 0 255 128 0 255 128 0 255 128 0 255 128 0 255 128 0 255 128 0 255 128 0 255 128 0 255 128 0 255 128 0 255 128 0 255 128 0 255 128 0 255 128 0 255 128 0 255 128 0 255 128 0 255 128 0 255 128 0 255 128 0 255 128 0 255 128 0 255 128 0 255 128 0 255 128 0 255 128 0 255 128 0 255 128 0 255 128 0 255 128 0 255 128 0 255 128 0 255 128 0 255 128 0 255 128 0 255 128 0 255 128 0 255 128 0 255 128 0 255 128 0 255 128 0 255 128 0 255 128 0 255 128 0 255 128 0 255 128 0 255 128 0 255 128 0 255 128 0 255 128 0 255 128 0 255 128 0 255 128 0 255 128 0 255 128 0 255 128 0 255 128 0 255 128 0 255 128 0 255 128 0 255 128 0 255 128 0 255 128 0 255 128 0 255 128 0 255 128 0 255 128 0 255 128 0 255 128 0 255 128 0 255 128 0 255 128 0 255 128 0 255 128 0 255 128 0 255 128 0 255 128 0 255 128 0 255 128 0 255 128 0 255 128 0 255 128 0 255 128 0 255 128 0 255 128 0 255 128 0 255 128 0 255 128 0 255 128 0 255 128 0 255 128 0 255 128 0 255 128 0 255 128 0 255 128 0 255 128 0 255 128 0 255 128 0 255 128 0 255 128 0 255 128 0 255 128 0 255 128 0 255 128 0 255 128 0 255 128 0 255 128 0 255 128 0 255 128 0 255 128 0 255 128 0 255 128 0 255 128 0 255 128 0 255 128 0 255 128 0 255 128 0 255 128 0 255 128 0 255 128 0 255 128 0 255 128 0 255 128 0 255 128 0 255 128 0 255 128 0 255 128 0 255 128 0 255 128 0 255 128 0 255 128 0 255 128 0 255 128 0 255 128 0 255 128 0 255 128 0 255 128 0 255 128 0 255 128 0 255 128 0 255 128 0 255 128 0 255 128 0 255 128 0 255 128 0 255 128 0 255 128 0 255 128 0 255 128 0 255 128 0 255 128 0 255 128 0 255 128 0 255 128 0 255 128 0 255 128 0 255 128 0 255 128 0 255 128 0 255 128 0 255 128 0 255 128 0 255 128 0 255 128 0 255 128 0 255 128 0 255 128 0 255 128 0 255 128 0 255 128 0 255 128 0 255 128 0 255 128 0 255 128 0 255 128 0 255 128 0 255 128 0 255 128 0 255 128 0 255 128 0 255 128 0 255 128 0 255 128 0 255 128 0 255 128 0 255 128 0 255 128 0 255 128 0 255 128 0 255 128 0 255 128 0 255 128 0 255 128 0 255 128 0 255 128 0 255 128 0 255 128 0 255 128 0 255 128 0 255 128 0 255 128 0 255 128 0 255 128 0 255 128 0 255 128 0 255 128 0 255 128 0 255 128 0 255 128 0 255 128 0 255 128 0 255 128 0 255 128 0 255 128 0 255 128 0 255 128 0 255 128 0 255 128 0 255 128 0 255 128 0 255 128 0 255 128 0 255 128 0 255 128 0 255 128 0 255 128 0 255 128 0 255 128 0 255 128 0 255 128 0 255 128 0 255 128 0 255 128 0 255 128 0 255 128 0 255 128 0 255 128 0 255 128 0 255 128 0 255 128 0 255 128 0 255 128 0 255 128 0 255 128 0 255 128 0 255 128 0 255 128 0 255 128 0 255 128 0 255 128 0 255 128 0 255 128 0 255 128 0 255 128 0 255 128 0 255 128 0 255 128 0 255 128 0 255 128 0 255 128 0 255 128 0 255 128 0 255 128 0 255 128 0 255 128 0 255 128 0 255 128 0 255 128 0 255 128 0 255 128 0 255 128 0 255 128 0 255 128 0 255 128 0 255 128 0 255 128 0 255 128 0 255 128 0 255 128 0 255 128 0 255 128 0 255 128 0 255 128 0 255 128 0 255 128 0 255 128 0 255 128 0 255 128 0 255 128 0 255 128 0 255 128 0 255 128 0 255 128 0 255 128 0 255 128 0 255 128 0 255 128 0 255 128 0 255 128 0 255 128 0 255 128 0 255 128 0 255 128 0 255 128 0 255 128 0 255 128 0 255 128 0 255 128 0 255 128 0 255 128 0 255 128 0 255 128 0 255 128 0 255 128 0 255 128 0 255 128 0 255 128 0 255 128 0 255 128 0 255 128 0 255 128 0 255 128 0 255 128 0 255 128 0 255 128 0 255 128 0 255 128 0 255 128 0 255 128 0 255 128 0 255 128 0 255 128 0 255 128 0 255 128 0 255 128 0 255 128 0 255 128 0 255 128 0 255 128 0 255 128 0 255 128 0 255 128 0 255 128 0 255 128 0 255 128 0 255 128 0 255 128 0 255 128 0 255 128 0 255 128 0 255 128 0 255 128 0 255 128 0 255 128 0 255 128 0 255 128 0 255 128 0 255 128 0 255 128 0 255 128 0 255 128 0 255 128 0 255 128 0 255 128 0 255 128 0 255 128 0 255 128 0 255 128 0 255 128 0 255 128 0 255 128 0 255 128 0 255 128 0 255 128 0 255 128 0 255 128 0 255 128 0 255 128 0 255 128 0 255 128 0 255 128 0 255 128 0 255 128 0 255 128 0 255 128 0 255 128 0 255 128 0 255 128 0 255 128 0 255 128 0 255 128 0 255 128 0 255 128 0 255 128 0 255 128 0 255 128 0 255 128 0 255 128 0 255 128 0 255 128 0 255 128 0 255 128 0 255 128 0 255 128 0 255 128 0 255 128 0 255 128 0 255 128 0 255 128 0 255 128 0 255 128 0 255 128 0 255 128 0 255 128 0 255 128 0 255 128 0 255 128 0 255 128 0 255 128 0 255 128 0 255 128 0 255 128 0 255 128 0 255 128 0 255 128 0 255 128 0 255 128 0 255 128 0 255 128 0 255 128 0 255 128 0 255 128 0 255 128 0 255 128 0 255 128 0 255 128 0 255 128 0 255 128 0 255 128 0 255 128 0 255 128 0 255 128 0 255 128 0 255 128 0 255 128 0 255 128 0 255 128 0 255 128 0 255 128 0 255 128 0 255 128 0 255 128 0 255 128 0 255 128 0 255 128 0 255 128 0 255 128 0 255 128 0 255 128 0 255 128 0 255 128 0 255 128 0 255 128 0 255 128 0 255 128 0 255 128 0 255 128 0 255 128 0 255 128 0 255 128 0 255 128 0 255 128 0 255 128 0 255 128 0 255 128 0 255 128 0 255 128 0 255 128 0 255 128 0 255 128 0 255 128 0 255 128 0 255 128 0 255 128 0 255 128 0 255 128 0 255 128 0 255 128 0 255 128 0 255 128 0 255 128 0 255 128 0 255 128 0 255 128 0 255 128 0 255 128 0 255 128 0 255 128 0 255 128 0 255 128 0 255 128 0 255 128 0 255 128 0 255 128 0 255 128 0 255 128 0 255 128 0 255 128 0 255 128 0 255 128 0 255 128 0 255 128 0 255 128 0 255 128 0 255 128 0 255 128 0 255 128 0 255 128 0 255 128 0 255 128 0 255 128 0 255 128 0 255 128 0 255 128 0 255 128 0 255 128 0 255 128 0 255 128 0 255 128 0 255 128 0 255 128 0 255 128 0 255 128 0 255 128 0 255 128 0 255 128 0 255 128 0 255 128 0 255 128 0 255 128 0 255 128 0 255 128 0 255 128 0 255 128 0 255 128 0 255 128 0 255 128 0 255 128 0 255 128 0 255 128 0 255 128 0 255 128 0 255 128 0 255 128 0 255 128 0 255 128 0 255 128 0 255 128 0 255 128 0 255 128 0 255 128 0 255 128 0 255 128 0 255 128 0 255 128 0 255 128 0 255 128 0 255 128 0 255 128 0 255 128 0 255 128 0 255 128 0 255 128 0 255 128 0 255 128 0 255 128 0 255 128 0 255 128 0 255 128 0 255 128 0 255 128 0 255 128 0 255 128 0 255 128 0 255 128 0 255 128 0 255 128 0 255 128 0 255 128 0 255 128 0 255 128 0 255 128 0 255 128 0 255 128 0 255 128 0 255 128 0 255 128 0 255 128 0 255 128 0 255 128 0 255 128 0 255 128 0 255 128 0 255 128 0 255 128 0 255 128 0 255 128 0 255 128 0 255 128 0 255 128 0 255 128 0 255 128 0 255 128 0 255 128 0 255 128 0 255 128 0 255 128 0 255 128 0 255 128 0 255 128 0 255 128 0 255 128 0 255 128 0 255 128 0 255 128 0 255 128 0 255 128 0 255 128 0 255 128 0 255 128 0 255 128 0 255 128 0 255 128 0 255 128 0 255 128 0 255 128 0 255 128 0 255 128 0 255 128 0 255 128 0 255 128 0 255 128 0 255 128 0 255 128 0 255 128 0 255 128 0 255 128 0 255 128 0 255 128 0 255 128 0 255 128 0 255 128 0 255 128 0 255 128 0 255 128 0 255 128 0 255 128 0 255 128 0 255 128 0 255 128 0 255 128 0 255 128 0 255 128 0 255 128 0 255 128 0 255 128 0 255 128 0 255 128 0 255 128 0 255 128 0 255 128 0 255 128 0 255 128 0 255 128 0 255 128 0 255 128 0 255 128 0 255 128 0 255 128 0 255 128 0 255 128 0 255 128 0 255 128 0 255 128 0 255 128 0 255 128 0 255 128 0 255 128 0 255 128 0 255 128 0 255 128 0 255 128 0 255 128 0 255 128 0 255 128 0 255 128 0 255 128 0 255 128 0 255 128 0 255 128 0 255 128 0 255 128 0 255 128 0 255 128 0 255 128 0 255 128 0 255 128 0 255 128 0 255 128 0 255 128 0 255 128 0 255 128 0 255 128 0 255 128 0 255 128 0 255 128 0 255 128 0 255 128 0 255 128 0 255 128 0 255 128 0 255 128 0 255 128 0 255 128 0 255 128 0 255 128 0 255 128 0 255 128 0 255 128 0 255 128 0 255 128 0 255 128 0 255 128 0 255 128 0 255 128 0 255 128 0 255 128 0 255 128 0 255 128 0 255 128 0 255 128 0 255 128 0 255 128 0 255 128 0 255 128 0 255 128 0 255 128 0 255 128 0 255 128 0 255 128 0 255 128 0 255 128 0 255 128 0 255 128 0 255 128 0 255 128 0 255 128 0 255 128 0 255 128 0 255 128 0 255 128 0 255 128 0 255 128 0 255 128 0 255 128 0 255 128 0 255 128 0 255 128 0 255 128 0 255 128 0 255 128 0 255 128 0 255 128 0 255 128 0 255 128 0 255 128 0 255 128 0 255 128 0 255 128 0 255 128 0 255 128 0 255 128 0 255 128 0 255 128 0 255 128 0 255 128 0 255 128 0 255 128 0 255 128 0 255 128 0 255 128 0 255 128 0 255 128 0 255 128 0 255 128 0 255 128 0 255 128 0 255 128 0 255 128 0 255 128 0 255 128 0 255 128 0 255 128 0 255 128 0 255 128 0 255 128 0 255 128 0 255 128 0 255 128 0 255 128 0 255 128 0 255 128 0 255 128 0 255 128 0 255 128 0 255 128 0 255 128 0 255 128 0 255 128 0 255 128 0 255 128 0 255 128 0 255 128 0 255 128 0 255 128 0 255 128 0 255 128 0 255 128 0 255 128 0 255 128 0 255 128 0 255 128 0 255 128 0 255 128 0 255 128 0 255 128 0 255 128 0 255 128 0 255 128 0 255 128 0 255 128 0 255 128 0 255 128 0 255 128 0 255 128 0 255 128 0 255 128 0 255 128 0 255 128 0 255 128 0 255 128 0 255 128 0 255 128 0 255 128 0 255 128 0 255 128 0 255 128 0 255 128 0 255 128 0 255 128 0 255 128 0 255 128 0 255 128 0 255 128 0 255 128 0 255 128 0 255 128 0 255 128 0 255 128 0 255 128 0 255 128 0 255 128 0 255 128 0 255 128 0 255 128 0 255 128 0 255 128 0 255 128 0 255 128 0 255 128 0 255 128 0 255 128 0 255 128 0 255 128 0 255 128 0 255 128 0 255 128 0 255 128 0 255 128 0 255 128 0 255 128 0 255 128 0 255 128 0 255 128 0 255 128 0 255 128 0 255 128 0 255 128 0 255 128 0 255 128 0 255 128 0 255 128 0 255 128 0 255 128 0 255 128 0 255 128 0 255 128 0 255 128 0 255 128 0 255 128 0 255 128 0 255 128 0 255 128 0 255 128 0 255 128 0 255 128 0 255 128 0 255 128 0 255 128 0 255 128 0 255 128 0 255 128 0 255 128 0 255 128 0 255 128 0 255 128 0 255 128 0 255 128 0 255 128 0 255 128 0 255 128 0 255 128 0 255 128 0 255 128 0 255 128 0 255 128 0 255 128 0 255 128 0 255 128 0 255 128 0 255 128 0 255 128 0 255 128 0 255 128 0 255 128 0 255 128 0 255 128 0 255 128 0 255 128 0 255 128 0 255 128 0 255 128 0 255 128 0 255 128 0 255 128 0 255 128 0 255 128 0 255 128 0 255 128 0 255 128 0 255 128 0 255 128 0 255 128 0 255 128 0 255 128 0 255 128 0 255 128 0 255 128 0 255 128 0 255 128 0 255 128 0 255 128 0 255 128 0 255 128 0 255 128 0 255 128 0 255 128 0 255 128 0 255 128 0 255 128 0 255 128 0 255 128 0 255 128 0 255 128 0 255 128 0 255 128 0 255 128 0 255 128 0 255 128 0 255 128 0 255 128 0 255 128 0 255 128 0 255 128 0 255 128 0 255 128 0 255 128 0 255 128 0 255 128 0 255 128 0 255 128 0 255 128 0 255 128 0 255 128 0 255 128 0 255 128 0 255 128 0 255 128 0 255 128 0 255 128 0 255 128 0 255 128 0 255 128 0 255 128 0 255 128 0 255 128 0 255 128 0 255 128 0 255 128 0 255 128 0 255 128 0 255 128 0 255 128 0 255 128 0 255 128 0 255 128 0 255 128 0 255 128 0 255 128 0 255 128 0 255 128 0 255 128 0 255 128 0 255 128 0 255 128 0 255 128 0 255 128 0 255 128 0 255 128 0 255 128 0 255 128 0 255 128 0 255 128 0 255 128 0 255 128 0 255 128 0 255 128 0 255 128 0 255 128 0 255 128 0 255 128 0 255 128 0 255 128 0 255 128 0 255 128 0 255 128 0 255 128 0 255 128 0 255 128 0 255 128 0 255 128 0 255 128 0 255 128 0 255 128 0 255 128 0 255 128 0 255 128 0 255 128 0 255 128 0 255 128 0 255 128 0 255 128 0 255 128 0 255 128 0 255 128 0 255 128 0 255 128 0 255 128 0 255 128 0 255 128 0 255 128 0 255 128 0 255 128 0 255 128 0 255 128 0 255 128 0 255 128 0 255 128 0 255 128 0 255 128 0 255 128 0 255 128 0 255 128 0 255 128 0 255 128 0 255 128 0 255 128 0 255 128 0 255 128 0 255 128 0 255 128 0 255 128 0 255 128 0 255 128 0 255 128 0 255 128 0 255 128 0 255 128 0 255 128 0 255 128 0 255 128 0 255 128 0 255 128 0 255 128 0 255 128 0 255 128 0 255 128 0 255 128 0 255 128 0 255 128 0 255 128 0 255 128 0 255 128 0 255 128 0 255 128 0 255 128 0 255 128 0 255 128 0 255 128 0 255 128 0 255 128 0 255 128 0 255 128 0 255 128 0 255 128 0 255 128 0 255 128 0 255 128 0 255 128 0 255 128 0 255 128 0 255 128 0 255 128 0 255 128 0 255 128 0 255 128 0 255 128 0 255 128 0 255 128 0 255 128 0 255 128 0 255 128 0 255 128 0 255 128 0 255 128 0 255 128 0 255 128 0 255 128 0 255 128 0 255 128 0 255 128 0 255 128 0 255 128 0 255 128 0 255 128 0 255 128 0 255 128 0 255 128 0 255 128 0 255 128 0 255 128 0 255 128 0 255 128 0 255 128 0 255 128 0 255 128 0 255 128 0 255 128 0 255 128 0 255 128 0 255 128 0 255 128 0 255 128 0 255 128 0 255 128 0 255 128 0 255 128 0 255 128 0 255 128 0 255 128 0 255 128 0 255 128 0 255 128 0 255 128 0 255 128 0 255 128 0 255 128 0 255 128 0 255 128 0 255 128 0 255 128 0 255 128 0 255 128 0 255 128 0 255 128 0 255 128 0 255 128 0 255 128 0 255 128 0 255 128 0 255 128 0 255 128 0 255 128 0 255 128 0 255 128 0 255 128 0 255 128 0 255 128 0 255 128 0 255 128 0 255 128 0 255 128 0 255 128 0 255 128 0 255 128 0 255 128 0 255 128 0 255 128 0 255 128 0 255 128 0 255 128 0 255 128 0 255 128 0 255 128 0 255 128 0 255 128 0 255 128 0 255 128 0 255 128 0 255 128 0 255 128 0 255 128 0 255 128 0 255 128 0 255 128 0 255 128 0 255 128 0 255 128 0 255 128 0 255 128 0 255 128 0 255 128 0 255 128 0 255 128 0 255 128 0 255 128 0 255 128 0 255 128 0 255 128 0 255 128 0 255 128 0 255 128 0 255 128 0 255 128 0 255 128 0 255 128 0 255 128 0 255 128 0 255 128 0 255 128 0 255 128 0 255 128 0 255 128 0 255 128 0 255 128 0 255 128 0 255 128 0 255 128 0 255 128 0 255 128 0 255 128 0 255 128 0 255 128 0 255 128 0 255 128 0 255 128 0 255 128 0 255 128 0 255 128 0 255 128 0 255 128 0 255 128 0 255 128 0 255 128 0 255 128 0 255 128 0 255 128 0 255 128 0 255 128 0 255 128 0 255 128 0 255 128 0 255 128 0 255 128 0 255 128 0 255 128 0 255 128 0 255 128 0 255 128 0 255 128 0 255 128 0 255 128 0 255 128 0 255 128 0 255 128 0 255 128 0 255 128 0 255 128 0 255 128 0 255 128 0 255 128 0 255 128 0 255 128 0 255 128 0 255 128 0 255 128 0 255 128 0 255 128 0 255 128 0 255 128 0 255 128 0 255 128 0 255 128 0 255 128 0 255 128 0 255 128 0 255 128 0 255 128 0 255 128 0 255 128 0 255 128 0 255 128 0 255 128 0 255 128 0 255 128 0 255 128 0 255 128 0 255 128 0 255 128 0 255 128 0 255 128 0 255 128 0 255 128 0 255 128 0 255 128 0 255 128 0 255 128 0 255 128 0 255 128 0 255 128 0 255 128 0 255 128 0 255 128 0 255 128 0 255 128 0 255 128 0 255 128 0 255 128 0 255 128 0 255 128 0 255 128 0 255 128 0 255 128 0 255 128 0 255 128 0 255 128 0 255 128 0 255 128 0 255 128 0 255 128 0 255 128 0 255 128 0 255 128 0 255 128 0 255 128 0 255 128 0 255 128 0 255 128 0 255 128 0 255 128 0 255 128 0 255 128 0 255 128 0 255 128 0 255 128 0 255 128 0 255 128 0 255 128 0 255 128 0 255 128 0 255 128 0 255 128 0 255 128 0 255 128 0 255 128 0 255 128 0 255 128 0 255 128 0 255 128 0 255 128 0 255 128 0 255 128 0 255 128 0 255 128 0 255 128 0 255 128 0 255 128 0 255 128 0 255 128 0 255 128 0 255 128 0 255 128 0 255 128 0 255 128 0 255 128 0 255 128 0 255 128 0 255 128 0 255 128 0 255 128 0 255 128 0 255 128 0 255 128 0 255 128 0 255 128 0 255 128 0 255 128 0 255 128 0 255 128 0 255 128 0 255 128 0 255 128 0 255 128 0 255 128 0 255 128 0 255 128 0 255 128 0 255 128 0 255 128 0 255 128 0 255 128 0 255 128 0 255 128 0 255 128 0 255 128 0 255 128 0 255 128 0 255 128 0 255 128 0 255 128 0 255 128 0 255 128 0 255 128 0 255 128 0 255 128 0 255 128 0 255 128 0 255 128 0 255 128 0 255 128 0 255 128 0 255 128 0 255 128 0 255 128 0 255 128 0 255 128 0 255 128 0 255 128 0 255 128 0 255 128 0 255 128 0 255 128 0 255 128 0 255 128 0 255 128 0 255 128 0 255 128 0 255 128 0 255 128 0 255 128 0 255 128 0 255 128 0 255 128 0 255 128 0 255 128 0 255 128 0 255 128 0 255 128 0 255 128 0 255 128 0 255 128 0 255 128 0 255 128 0 255 128 0 255 128 0 255 128 0 255 128 0 255 128 0 255 128 0 255 128 0 255 128 0 255 128 0 255 128 0 255 128 0 255 128 0 255 128 0 255 128 0 255 128 0 255 128 0 255 128 0 255 128 0 255 128 0 255 128 0 255 128 0 255 128 0 255 128 0 255 128 0 255 128 0 255 128 0 255 128 0 255 128 0 255 128 0 255 128 0 255 128 0 255 128 0 255 128 0 255 128 0 255 128 0 255 128 0 255 128 0 255 128 0 255 128 0 255 128 0 255 128 0 255 128 0 255 128 0 255 128 0 255 128 0 255 128 0 255 128 0 255 128 0 255 128 0 255 128 0 255 128 0 255 128 0 255 128 0 255 128 0 255 128 0 255 128 0 255 128 0 255 128 0 255 128 0 255 128 0 255 128 0 255 128 0 255 128 0 255 128 0 255 128 0 255 128 0 255 128 0 255 128 0 255 128 0 255 128 0 255 128 0 255 128 0 255 128 0 255 128 0 255 128 0 255 128 0 255 128 0 255 128 0 255 128 0 255 128 0 255 128 0 255 128 0 255 128 0 255 128 0 255 128 0 255 128 0 255 128 0 255 128 0 255 128 0 255 128 0 255 128 0 255 128 0 255 128 0 255 128 0 255 128 0 255 128 0 255 128 0 