P3
64 48
255
50 53 53 49 56 50 48 53 50 53 50 49 56 50 48 53 49 53 50 48 56 50 53 53 49 56 50 48 53 50 53 50 49 56 50 48 53 49 53 50 48 56 50 53 53 49 56 50 48 53 50 53 50 49 56 50 48 53 49 53 50 48 56 50 53 53 49 56 50 48 53 50 53 50 49 56 50 48 53 49 53 50 48 56 50 53 53 49 56 50 48 53 50 53 50 49 56 50 48 53 49 53 50 48 56 50 53 53 49 56 50 48 53 50 53 50 49 56 50 48 53 49 53 50 48 56 50 53 53 49 56 50 48 53 50 53 50 49 56 50 48 53 49 53 50 48 56 50 53 53 49 56 50 48 53 50 53 50 49 56 50 48 53 49 53 50 48 56 50 53 53 49 56 50 48 53 50 53 50 49 56 50 48 53 49 53 50 48 56 50 53 53 49 56 50 48 53 50 53 50 49 56 50 48 53 49 53 50 48 56 50 53 53 49 56 50 48 53 50 53 50 49 56 50 48 53 49 53 50 48 56 50 53 53 49 56 50 48 53 50 53 50 49 56 50 48 53 49 53 50 48 56 50 53 53 49 56 50 48 53 50 53 50 49 56 50 48 53 49 53 50 48 56 50 53 53 49 56 50 48 53 50 53 50 49 56 50 48 53 49 53 50 48 56 50 53 53 49 56 50 48 53 50 53 50 49 56 50 48 53 49 53 50 48 56 50 53 53 49 56 50 48 53 50 53 50 49 56 50 48 53 49 53 50 48 56 50 53 53 49 56 50 48 53 50 53 50 49 56 50 48 53 49 53 50 48 56 50 53 53 49 56 50 48 53 50 53 50 49 56 50 48 53 49 53 50 48 56 50 53 53 49 56 50 48 53 50 53 50 49 56 50 48 53 49 53 50 48 56 50 53 53 49 56 50 48 53 50 53 50 49 56 50 48 53 49 53 50 48 56 50 53 53 49 56 50 48 53 50 53 50 49 56 50 48 53 49 53 50 48 56 50 53 53 49 56 50 48 53 50 53 50 49 56 50 48 53 49 53 50 48 56 50 53 53 49 56 50 48 53 50 53 50 49 56 50 48 53 49 53 50 48 56 50 53 53 49 56 50 48 53 50 53 50 49 56 50 48 53 49 53 50 48 56 50 53 53 49 56 50 48 53 50 53 50 49 56 50 48 53 49 53 50 48 56 50 53 53 49 56 50 48 53 50 53 50 49 56 50 48 53 49 53 50 48 56 50 53 53 49 56 50 48 53 50 53 50 49 56 50 48 53 49 53 50 48 56 50 53 53 49 56 50 48 53 50 53 50 49 56 50 48 53 49 53 50 48 56 50 53 53 49 56 50 48 53 50 53 50 49 56 50 48 53 49 53 50 48 56 50 53 53 49 56 50 48 53 50 53 50 49 56 50 48 53 49 53 50 48 56 50 53 53 49 56 50 48 53 50 53 50 49 56 50 48 53 49 53 50 48 56 50 53 53 49 56 50 48 53 50 53 50 49 56 50 48 53 49 53 50 48 56 50 53 53 49 56 50 48 53 50 53 50 49 56 50 48 53 49 53 50 48 56 50 53 53 49 56 50 48 53 50 53 50 49 56 50 48 53 49 53 50 48 56 50 53 53 49 56 50 48 53 50 53 50 49 56 50 48 53 49 53 50 48 56 50 53 53 49 56 50 48 53 50 53 50 49 56 50 48 53 49 53 50 48 56 50 53 53 49 56 50 48 53 50 53 50 49 56 50 48 53 49 53 50 48 56 50 53 53 49 56 50 48 53 50 53 50 49 56 50 48 53 49 53 50 48 56 50 53 53 49 56 50 48 53 50 53 50 49 56 50 48 53 49 53 50 48 56 50 53 53 49 56 50 48 53 50 53 50 49 56 50 48 53 49 53 50 48 56 50 53 53 49 56 50 48 53 50 53 50 49 56 50 48 53 49 53 50 48 56 50 53 53 49 56 50 48 53 50 53 50 49 56 50 48 53 49 53 50 48 56 50 53 53 49 56 50 48 53 50 53 50 49 56 50 48 53 49 53 50 48 56 50 53 53 49 56 50 48 53 50 53 50 49 56 53 50 53 53 50 53 50 49 56 50 48 53 49 53 50 48 56 50 53 53 49 56 50 48 53 50 53 50 49 56 50 48 53 49 53 50 48 56 50 53 53 49 56 50 48 53 50 53 50 49 56 50 48 53 49 53 50 48 56 0 128 255 0 128 255 0 128 255 0 128 255 0 128 255 0 128 255 0 128 255 0 128 255 0 128 255 0 128 255 0 128 255 56 50 48 53 49 53 50 48 56 50 53 53 49 56 50 48 53 50 53 50 49 56 50 48 53 49 53 50 48 56 50 53 53 49 56 50 48 53 50 53 50 49 56 50 48 53 49 53 50 48 56 50 53 53 49 56 50 48 53 50 53 50 49 56 50 48 53 49 53 50 48 56 50 53 53 49 56 50 48 53 50 53 50 49 56 50 48 53 49 53 50 48 56 50 53 53 49 56 50 48 53 50 53 50 49 56 50 48 53 49 53 50 48 56 50 53 53 49 56 50 48 53 50 53 50 49 56 50 48 53 49 53 50 48 56 50 53 53 49 56 50 48 53 50 53 50 49 56 50 48 53 49 53 50 48 56 50 53 53 0 128 255 0 128 255 0 128 255 0 128 255 0 128 255 0 128 255 0 128 255 0 128 255 0 128 255 0 128 255 0 128 255 53 49 53 50 48 56 50 53 53 49 56 50 48 53 50 53 50 49 56 50 48 53 49 53 50 48 56 50 53 53 49 56 50 48 53 50 53 50 49 56 50 48 53 49 53 50 48 56 50 53 53 49 56 50 48 53 50 53 50 49 56 50 48 53 49 53 50 48 56 50 53 53 49 56 50 48 53 50 53 50 49 56 50 48 53 49 53 50 48 56 50 53 53 49 56 50 48 53 50 53 50 49 56 50 48 53 49 53 50 48 56 50 53 53 49 56 50 48 53 50 53 50 49 56 50 48 53 49 53 50 48 56 50 53 53 49 56 50 48 53 50 53 50 49 56 50 48 53 49 53 50 48 56 50 53 53 49 56 50 0 128 255 0 128 255 0 128 255 0 128 255 0 128 255 0 128 255 0 128 255 0 128 255 0 128 255 0 128 255 0 128 255 50 48 56 50 53 53 49 56 50 48 53 50 53 50 49 56 50 48 53 49 53 50 48 56 50 53 53 49 56 50 48 53 50 53 50 49 56 50 48 53 49 53 50 48 56 50 53 53 49 56 50 48 53 50 53 50 49 56 50 48 53 49 53 50 48 56 50 53 53 49 56 50 48 53 50 53 50 49 56 50 48 53 49 53 50 48 56 50 53 53 49 56 50 48 53 50 53 50 49 56 50 48 53 49 53 50 48 56 50 53 53 49 56 50 48 53 50 53 50 49 56 50 48 53 49 53 50 48 56 50 53 53 49 56 50 48 53 50 53 50 49 56 50 48 53 49 53 50 48 56 50 53 53 49 56 50 48 53 50 0 128 255 0 128 255 0 128 255 0 128 255 0 128 255 0 128 255 0 128 255 0 128 255 0 128 255 0 128 255 0 128 255 50 53 53 49 56 50 48 53 50 53 50 49 56 50 48 53 49 53 50 48 56 50 53 53 49 56 50 48 53 50 53 50 49 56 50 48 53 49 53 50 48 56 50 53 53 49 56 50 48 53 50 53 50 49 56 50 48 53 49 53 50 48 56 50 53 53 49 56 50 48 53 50 53 50 49 56 50 48 53 49 53 50 48 56 50 53 53 49 56 50 48 53 50 53 50 49 56 50 48 53 49 53 50 48 56 50 53 53 49 56 50 48 53 50 53 50 49 56 50 48 53 49 53 50 48 56 50 53 53 49 56 50 48 53 50 53 50 49 56 50 48 53 49 53 50 48 56 50 53 53 49 56 50 48 53 50 53 50 49 0 128 255 0 128 255 0 128 255 0 128 255 0 128 255 0 128 255 0 128 255 0 128 255 0 128 255 0 128 255 0 128 255 49 56 50 48 53 50 53 50 49 56 50 48 53 49 53 50 48 56 50 53 53 49 56 50 48 53 50 53 50 49 56 50 48 53 49 53 50 48 56 50 53 53 49 56 50 48 53 50 53 50 49 56 50 48 53 49 53 50 48 56 50 53 53 49 56 50 48 53 50 53 50 49 56 50 48 53 49 53 50 48 56 50 53 53 49 56 50 48 53 50 53 50 49 56 50 48 53 49 53 50 48 56 50 53 53 49 56 50 48 53 50 53 50 49 56 50 48 53 49 53 50 48 56 50 53 53 49 56 50 48 53 50 53 50 49 56 50 48 53 49 53 50 48 56 50 53 53 49 56 50 48 53 50 53 50 49 56 50 48 0 128 255 0 128 255 0 128 255 0 128 255 0 128 255 0 128 255 0 128 255 0 128 255 0 128 255 0 128 255 0 128 255 48 53 50 53 50 49 56 50 48 53 49 53 50 48 56 50 53 53 49 56 50 48 53 50 53 50 49 56 50 48 53 49 53 50 48 56 50 53 53 49 56 50 48 53 50 53 50 49 56 50 48 53 49 53 50 48 56 50 53 53 49 56 50 48 53 50 53 50 49 56 50 48 53 49 53 50 48 56 50 53 53 49 56 50 48 53 50 53 50 49 56 50 48 53 49 53 50 48 56 50 53 53 49 56 50 48 53 50 53 50 49 56 50 48 53 49 53 50 48 56 50 53 53 49 56 50 48 53 50 53 50 49 56 50 48 53 49 53 50 48 56 50 53 53 49 56 50 48 53 50 53 50 49 56 50 48 53 49 53 50 48 56 50 53 53 49 56 50 48 53 50 53 50 49 56 50 48 53 49 53 50 48 56 50 53 53 49 56 50 48 53 50 53 50 49 56 50 48 53 49 53 50 48 56 50 53 53 49 56 50 48 53 50 53 50 49 56 50 48 53 49 53 50 48 56 50 53 53 49 56 50 48 53 50 53 50 49 56 50 48 53 49 53 50 48 56 50 53 53 49 56 50 48 53 50 53 50 49 56 50 48 53 49 53 50 48 56 50 53 53 49 56 50 48 53 50 53 50 49 56 50 48 53 49 53 50 48 56 50 53 53 49 56 50 48 53 50 53 50 49 56 50 48 53 49 53 50 48 56 50 53 53 49 56 50 48 53 50 53 50 49 56 50 48 53 49 53 50 48 56 50 53 53 49 56 50 48 53 50 53 50 49 56 50 48 53 49 53 50 50 56 53 50 53 53 49 53 50 50 56 53 50 53 53 49 53 50 50 56 53 50 53 53 49 53 50 50 56 53 50 53 53 49 53 50 50 56 53 50 53 53 49 53 50 50 56 53 50 53 53 49 53 50 50 56 53 50 53 53 49 53 50 50 56 53 50 53 53 49 53 50 50 56 53 50 53 53 49 53 50 50 56 53 50 53 53 49 53 50 50 56 53 50 53 53 49 53 50 50 56 53 50 53 53 49 53 50 50 56 53 50 53 53 49 53 50 50 56 53 50 53 53 49 53 50 50 56 53 50 53 53 49 53 50 50 56 53 50 53 53 49 53 50 48 56 50 53 53 49 56 50 48 53 50 53 50 49 56 50 48 53 49 53 50 48 56 50 53 53 49 56 50 48 53 50 53 50 49 56 50 48 53 49 53 50 48 56 50 53 53 49 56 50 48 53 50 53 50 49 56 50 48 53 49 53 50 48 56 50 53 53 49 56 50 48 53 50 53 50 49 56 50 48 53 49 53 50 48 56 50 53 53 49 56 50 48 53 50 53 50 49 56 50 48 53 49 53 50 48 56 50 53 53 49 56 50 48 53 50 53 50 49 56 50 48 53 49 53 50 48 56 50 53 53 49 56 50 48 53 50 53 50 49 56 50 48 53 49 53 50 48 56 50 53 53 49 56 50 48 53 50 53 50 49 56 50 48 53 49 53 50 48 56 50 53 53 49 56 50 48 53 50 53 50 49 56 50 48 53 49 53 50 48 56 50 53 53 49 56 50 48 53 50 53 50 49 56 50 48 53 49 53 50 48 56 50 53 53 49 56 50 48 53 50 53 50 49 56 50 48 53 49 53 50 48 56 50 53 53 49 56 50 48 53 50 53 50 49 56 50 48 53 49 53 50 48 56 50 53 53 49 56 50 48 53 50 53 50 49 56 50 48 53 49 53 50 48 56 50 53 53 49 56 50 48 53 50 53 50 49 56 50 48 53 49 53 50 48 56 50 53 53 49 56 50 48 53 50 53 50 49 56 50 48 53 49 53 50 48 56 50 53 53 49 56 50 48 53 50 53 50 49 56 50 48 53 49 53 50 50 56 53 50 53 53 49 53 50 50 56 53 50 53 53 49 53 50 50 56 53 50 53 53 49 53 50 50 56 53 50 53 53 49 53 50 50 56 53 50 53 53 49 53 50 50 56 53 50 53 53 49 53 50 50 56 53 50 53 53 49 53 50 50 56 53 50 53 53 49 53 50 50 56 53 50 53 53 49 53 50 50 56 53 50 53 53 49 53 50 50 56 53 50 53 53 49 53 50 50 56 53 50 53 53 49 53 50 50 56 53 50 53 53 49 53 50 50 56 53 50 53 53 49 53 50 50 56 53 50 53 53 49 53 50 50 56 53 50 53 53 49 53 50 48 56 50 53 53 49 56 50 48 53 50 53 50 49 56 50 48 53 49 53 50 48 56 50 53 53 49 56 50 48 53 50 53 50 49 56 50 48 53 49 53 50 48 56 50 53 53 49 56 50 48 53 50 53 50 49 56 50 48 53 49 53 50 48 56 50 53 53 49 56 50 48 53 50 53 50 49 56 50 48 53 49 53 50 48 56 50 53 53 49 56 50 48 53 50 53 50 49 56 50 48 53 49 53 50 48 56 50 53 53 49 56 50 48 53 50 53 50 49 56 50 48 53 49 53 50 48 56 50 53 53 49 56 50 48 53 50 53 50 49 56 50 48 53 49 53 50 48 56 50 53 53 49 56 50 48 53 50 53 50 49 56 50 48 53 49 53 50 48 56 50 53 53 49 56 50 48 53 50 53 50 49 56 50 48 53 49 53 50 48 56 50 53 53 49 56 50 48 53 50 53 50 49 56 50 48 53 49 53 50 48 56 50 53 53 49 56 50 48 53 50 53 50 49 56 50 48 53 49 53 50 48 56 50 53 53 49 56 50 48 53 50 53 50 49 56 50 48 53 49 53 50 48 56 50 53 53 49 56 50 48 53 50 53 50 49 56 50 48 53 49 53 50 48 56 50 53 53 49 56 50 48 53 50 53 50 49 56 50 48 53 49 53 50 48 56 50 53 53 49 56 50 48 53 50 53 50 49 56 50 48 53 49 53 50 48 56 50 53 53 49 56 50 48 53 50 53 50 49 56 50 48 53 49 53 50 50 56 53 50 53 53 49 53 50 50 56 53 50 53 53 49 53 50 50 56 53 50 53 53 49 53 50 50 56 53 50 53 53 49 53 50 50 56 53 50 53 53 49 53 50 50 56 53 50 53 53 49 53 50 50 56 53 50 53 53 49 53 50 50 56 53 50 53 53 49 53 50 50 56 53 50 53 53 49 53 50 50 56 53 50 53 53 49 53 50 50 56 53 50 53 53 49 53 50 50 56 53 50 53 53 49 53 50 50 56 53 50 53 53 49 53 50 50 56 53 50 53 53 49 53 50 50 56 53 50 53 53 49 53 50 50 56 53 50 53 53 49 53 50 48 56 50 53 53 49 56 50 48 53 50 53 50 49 56 50 48 53 49 53 50 48 56 50 53 53 49 56 50 48 53 50 53 50 49 56 50 48 53 49 53 50 48 56 50 53 53 49 56 50 48 53 50 53 50 49 56 50 48 53 49 53 50 48 56 50 53 53 49 56 50 48 53 50 53 50 49 56 50 48 53 49 53 50 48 56 50 53 53 49 56 50 48 53 50 53 50 49 56 50 48 53 49 53 50 48 56 50 53 53 49 56 50 48 53 50 53 50 49 56 50 48 53 49 53 50 48 56 50 53 53 49 56 50 48 53 50 53 50 49 56 50 48 53 49 53 50 48 56 50 53 53 49 56 50 48 53 50 53 50 49 56 50 48 53 49 53 50 48 56 50 53 53 49 56 50 48 53 50 53 50 49 56 50 48 53 49 53 50 48 56 50 53 53 49 56 50 48 53 50 53 50 49 56 50 48 53 49 53 50 48 56 50 53 53 49 56 50 48 53 50 53 50 49 56 50 48 53 49 53 50 48 56 50 53 53 49 56 50 48 53 50 53 50 49 56 50 48 53 49 53 50 48 56 50 53 53 49 56 50 48 53 50 53 50 49 56 50 48 53 49 53 50 48 56 50 53 53 49 56 50 48 53 50 53 50 49 56 50 48 53 49 53 50 48 56 50 53 53 49 56 50 48 53 50 53 50 49 56 50 48 53 49 53 50 48 56 50 53 53 49 56 50 48 53 50 53 50 49 56 50 48 53 49 53 50 50 56 53 50 53 53 49 53 50 50 56 53 50 53 53 49 53 50 50 56 53 50 53 53 49 53 50 50 56 53 50 53 53 49 53 50 50 56 53 50 53 53 49 53 50 50 56 53 50 53 53 49 53 50 50 56 53 50 53 53 49 53 50 50 56 53 50 53 53 49 53 50 50 56 53 50 53 53 49 53 50 50 56 53 50 53 53 49 53 50 50 56 53 50 53 53 49 53 50 50 56 53 50 53 53 49 53 50 50 56 53 50 53 53 49 53 50 50 56 53 50 53 53 49 53 50 50 56 53 50 53 53 49 53 50 50 56 53 50 53 53 49 53 50 48 56 50 53 53 49 56 50 48 53 50 53 50 49 56 50 48 53 49 53 50 48 56 50 53 53 49 56 50 48 53 50 53 50 49 56 50 48 53 49 53 50 48 56 50 53 53 49 56 50 48 53 50 53 50 49 56 50 48 53 49 53 50 48 56 50 53 53 49 56 50 48 53 50 53 50 49 56 50 48 53 49 53 50 48 56 50 53 53 49 56 50 48 53 50 53 50 49 56 50 48 53 49 53 50 48 56 50 53 53 49 56 50 48 53 50 53 50 49 56 50 48 53 49 53 50 48 56 50 53 53 49 56 50 48 53 50 53 50 49 56 50 48 53 49 53 50 48 56 50 53 53 49 56 50 48 53 50 53 50 49 56 50 48 53 49 53 50 48 56 50 53 53 49 56 50 48 53 50 53 50 49 56 50 48 53 49 53 50 48 56 50 53 53 49 56 50 48 53 50 53 50 49 56 50 48 53 49 53 50 48 56 50 53 53 49 56 50 48 53 50 53 50 49 56 50 48 53 49 53 50 48 56 50 53 53 49 56 50 48 53 50 53 50 49 56 50 48 53 49 53 50 48 56 50 53 53 49 56 50 48 53 50 53 50 49 56 50 48 53 49 53 50 48 56 50 53 53 49 56 50 48 53 50 53 50 49 56 50 48 53 49 53 50 48 56 50 53 53 49 56 50 48 53 50 53 50 49 56 50 48 53 49 53 50 48 56 50 53 53 49 56 50 48 53 50 53 50 49 56 50 48 53 49 53 50 50 56 53 50 53 53 49 53 50 50 56 53 50 53 53 49 53 50 50 56 53 50 53 53 49 53 50 50 56 53 50 53 53 49 53 50 50 56 53 50 53 53 49 53 50 50 56 53 50 53 53 49 53 50 50 56 53 50 53 53 49 53 50 50 56 53 50 53 53 49 53 50 50 56 53 50 53 53 49 53 50 50 56 53 50 53 53 49 53 50 50 56 53 50 53 53 49 53 50 50 56 53 50 53 53 49 53 50 50 56 53 50 53 53 49 53 50 50 56 53 50 53 53 49 53 50 50 56 53 50 53 53 49 53 50 50 56 53 50 53 53 49 53 50 48 56 50 53 53 49 56 50 48 53 50 53 50 49 56 50 48 53 49 53 50 48 56 50 53 53 49 56 50 48 53 50 53 50 49 56 50 48 53 49 53 50 48 56 50 53 53 49 56 50 48 53 50 53 50 49 56 50 48 53 49 53 50 48 56 50 53 53 49 56 50 48 53 50 53 50 49 56 50 48 53 49 53 50 48 56 50 53 53 49 56 50 48 53 50 53 50 49 56 50 48 53 49 53 50 48 56 50 53 53 49 56 50 48 53 50 53 50 49 56 50 48 53 49 53 50 48 56 50 53 53 49 56 50 48 53 50 53 50 49 56 50 48 53 49 53 50 48 56 50 53 53 49 56 50 48 53 50 53 50 49 56 50 48 53 49 53 50 48 56 50 53 53 49 56 50 48 53 50 53 50 49 56 50 48 53 49 53 50 48 56 50 53 53 49 56 50 48 53 50 53 50 49 56 50 48 53 49 53 50 48 56 50 53 53 49 56 50 48 53 50 53 50 49 56 50 48 53 49 53 50 48 56 50 53 53 49 56 50 48 53 50 53 50 49 56 50 48 53 49 53 50 48 56 50 53 53 49 56 50 48 53 50 53 50 49 56 50 48 53 49 53 50 48 56 50 53 53 49 56 50 48 53 50 53 50 49 56 50 48 53 49 53 50 48 56 50 53 53 49 56 50 48 53 50 53 50 49 56 50 48 53 49 53 50 48 56 50 53 53 49 56 50 48 53 50 53 50 49 56 50 48 53 49 53 50 50 56 53 50 53 53 49 53 50 50 56 53 50 53 53 49 53 50 50 56 53 50 53 53 49 53 50 50 56 53 50 53 53 49 53 50 50 56 53 50 53 53 49 53 50 50 56 53 50 53 53 49 53 50 50 56 53 50 53 53 49 53 50 50 56 53 50 53 53 49 53 50 50 56 53 50 53 53 49 53 50 50 56 53 50 53 53 49 53 50 50 56 53 50 53 53 49 53 50 50 56 53 50 53 53 49 53 50 50 56 53 50 53 53 49 53 50 50 56 53 50 53 53 49 53 50 50 56 53 50 53 53 49 53 50 50 56 53 50 53 53 49 53 50 48 56 50 53 53 49 56 50 48 53 50 53 50 49 0 128 255 0 128 255 0 128 255 0 128 255 0 128 255 0 128 255 0 128 255 0 128 255 0 128 255 0 128 255 0 128 255 49 56 50 48 53 50 53 50 49 56 50 48 53 49 53 50 48 56 50 53 53 49 56 50 48 53 50 53 50 49 56 50 48 53 49 53 50 48 56 50 53 53 49 56 50 48 53 50 53 50 49 56 50 48 53 49 53 50 48 56 50 53 53 49 56 50 48 53 50 53 50 49 56 50 48 53 49 53 50 48 56 50 53 53 49 56 50 48 53 50 53 50 49 56 50 48 53 49 53 50 48 56 50 53 53 49 56 50 48 53 50 53 50 49 56 50 48 53 49 53 50 48 56 50 53 53 49 56 50 48 53 50 53 50 49 56 50 48 53 49 53 50 48 56 50 53 53 49 56 50 48 53 50 53 50 49 56 50 48 0 128 255 0 128 255 0 128 255 0 128 255 0 128 255 0 128 255 0 128 255 0 128 255 0 128 255 0 128 255 0 128 255 48 53 50 53 50 49 56 50 48 53 49 53 50 48 56 50 53 53 49 56 50 48 53 50 53 50 49 56 50 48 53 49 53 50 48 56 50 53 53 49 56 50 48 53 50 53 50 49 56 50 48 53 49 53 50 48 56 50 53 53 49 56 50 48 53 50 53 50 49 56 50 48 53 49 53 50 48 56 50 53 53 49 56 50 48 53 50 53 50 49 56 50 48 53 49 53 50 48 56 50 53 53 49 56 50 48 53 50 53 50 49 56 50 48 53 49 53 50 48 56 50 53 53 49 56 50 48 53 50 53 50 49 56 50 48 53 49 53 50 48 56 50 53 53 49 56 50 48 53 50 53 50 49 56 50 48 53 49 53 0 128 255 0 128 255 0 128 255 0 128 255 0 128 255 0 128 255 0 128 255 0 128 255 0 128 255 0 128 255 0 128 255 53 50 49 56 50 48 53 49 53 50 48 56 50 53 53 49 56 50 48 53 50 53 50 49 56 50 48 53 49 53 50 48 56 50 53 53 49 56 50 48 53 50 53 50 49 56 50 48 53 49 53 50 48 56 50 53 53 49 56 50 48 53 50 53 50 49 56 50 48 53 49 53 50 48 56 50 53 53 49 56 50 48 53 50 53 50 49 56 50 48 53 49 53 50 48 56 50 53 53 49 56 50 48 53 50 53 50 49 56 50 48 53 49 53 50 48 56 50 53 53 49 56 50 48 53 50 53 50 49 56 50 48 53 49 53 50 48 56 50 53 53 49 56 50 48 53 50 53 50 49 56 50 48 53 49 53 50 48 56 0 128 255 0 128 255 0 128 255 0 128 255 0 128 255 0 128 255 0 128 255 0 128 255 0 128 255 0 128 255 0 128 255 56 50 48 53 49 53 50 48 56 50 53 53 49 56 50 48 53 50 53 50 49 56 50 48 53 49 53 50 48 56 50 53 53 49 56 50 48 53 50 53 50 49 56 50 48 53 49 53 50 48 56 50 53 53 49 56 50 48 53 50 53 50 49 56 50 48 53 49 53 50 48 56 50 53 53 49 56 50 48 53 50 53 50 49 56 50 48 53 49 53 50 48 56 50 53 53 49 56 50 48 53 50 53 50 49 56 50 48 53 49 53 50 48 56 50 53 53 49 56 50 48 53 50 53 50 49 56 50 48 53 49 53 50 48 56 50 53 53 49 56 50 48 53 50 53 50 49 56 50 48 53 49 53 50 48 56 50 53 53 0 128 255 0 128 255 0 128 255 0 128 255 0 128 255 0 128 255 0 128 255 0 128 255 0 128 255 0 128 255 0 128 255 53 49 53 50 48 56 50 53 53 49 56 50 48 53 50 53 50 49 56 50 48 53 49 53 50 48 56 50 53 53 49 56 50 48 53 50 53 50 49 56 50 48 53 49 53 50 48 56 50 53 53 49 56 50 48 53 50 53 50 49 56 50 48 53 49 53 50 48 56 50 53 53 49 56 50 48 53 50 53 50 49 56 50 48 53 49 53 50 48 56 50 53 53 49 56 50 48 53 50 53 50 49 56 50 48 53 49 53 50 48 56 50 53 53 49 56 50 48 53 50 53 50 49 56 50 48 53 49 53 50 48 56 50 53 53 49 56 50 48 53 50 53 50 49 56 50 48 53 49 53 50 48 56 50 53 53 49 56 50 0 128 255 0 128 255 0 128 255 0 128 255 0 128 255 0 128 255 0 128 255 0 128 255 0 128 255 0 128 255 0 128 255 50 48 56 50 53 53 49 56 50 48 53 50 53 50 49 56 50 48 53 49 53 50 48 56 50 53 53 49 56 50 48 53 50 53 50 49 56 50 48 53 49 53 50 48 56 50 53 53 49 56 50 48 53 50 53 50 49 56 50 48 53 49 53 50 48 56 50 53 53 49 56 50 48 53 50 53 50 49 56 50 48 53 49 53 50 48 56 50 53 53 49 56 50 48 53 50 53 50 49 56 50 48 53 49 53 50 48 56 50 53 53 49 56 50 48 53 50 53 50 49 56 50 48 53 49 53 50 48 56 50 53 53 49 56 50 48 53 50 53 50 49 56 50 48 53 49 53 50 48 56 50 53 53 49 56 50 48 53 50 0 128 255 0 128 255 0 128 255 0 128 255 0 128 255 0 128 255 0 128 255 0 128 255 0 128 255 0 128 255 0 128 255 50 53 53 49 56 50 48 53 50 53 50 49 56 50 48 53 49 53 50 48 56 50 53 53 49 56 50 48 53 50 53 50 49 56 50 48 53 49 53 50 48 56 50 53 53 49 56 50 48 53 50 53 50 49 56 50 48 53 49 53 50 48 56 50 53 53 49 56 50 48 53 50 53 50 49 56 50 48 53 49 53 50 48 56 50 53 53 49 56 50 48 53 50 53 50 49 56 50 48 53 49 53 50 48 56 50 53 53 49 56 50 48 53 50 53 50 49 56 50 48 53 49 53 50 48 56 50 53 53 49 56 50 48 53 50 53 50 49 56 50 48 53 49 53 50 48 56 50 53 53 49 56 50 48 53 50 53 50 49 0 128 255 0 128 255 0 128 255 0 128 255 0 128 255 0 128 255 0 128 255 0 128 255 0 128 255 0 128 255 0 128 255 49 56 50 48 53 50 53 50 49 56 50 48 53 49 53 50 48 56 50 53 53 49 56 50 48 53 50 53 50 49 56 50 48 53 49 53 50 48 56 50 53 53 49 56 50 48 53 50 53 50 49 56 50 48 53 49 53 50 48 56 50 53 53 49 56 50 48 53 50 53 50 49 56 50 48 53 49 53 50 48 56 50 53 53 49 56 50 48 53 50 53 50 49 56 50 48 53 49 53 50 48 56 50 53 53 49 56 50 48 53 50 53 50 49 56 50 48 53 49 53 50 48 56 50 53 53 49 56 50 48 53 50 53 50 49 56 50 48 53 49 53 50 48 56 50 53 53 49 56 50 48 53 50 53 50 49 56 50 48 0 128 255 0 128 255 0 128 255 0 128 255 0 128 255 0 128 255 0 128 255 0 128 255 0 128 255 0 128 255 0 128 255 48 53 50 53 50 49 56 50 48 53 49 53 50 48 56 50 53 53 49 56 50 48 53 50 53 50 49 56 50 48 53 49 53 50 48 56 50 53 53 49 56 50 48 53 50 53 50 49 56 50 48 53 49 53 50 48 56 50 53 53 49 56 50 48 53 50 53 50 49 56 50 48 53 49 53 50 48 56 50 53 53 49 56 50 48 53 50 53 50 49 56 50 48 53 49 53 50 48 56 50 53 53 49 56 50 48 53 50 53 50 49 56 50 48 53 49 53 50 48 56 50 53 53 49 56 50 48 53 50 53 50 49 56 50 48 53 49 53 50 48 56 50 53 53 49 56 50 48 53 50 53 50 49 56 50 48 53 49 53 0 128 255 0 128 255 0 128 255 0 128 255 0 128 255 0 128 255 0 128 255 0 128 255 0 128 255 0 128 255 0 128 255 53 50 49 56 50 48 53 49 53 50 48 56 50 53 53 49 56 50 48 53 50 53 50 49 56 50 48 53 49 53 50 48 56 50 53 53 49 56 50 48 53 50 53 50 49 56 50 48 53 49 53 50 48 56 50 53 53 49 56 50 48 53 50 53 50 49 56 50 48 53 49 53 50 48 56 50 53 53 49 56 50 48 53 50 53 50 49 56 50 48 53 49 53 50 48 56 50 53 53 49 56 50 48 53 50 53 50 49 56 50 48 53 49 53 50 48 56 50 53 53 49 56 50 48 53 50 53 50 49 56 50 48 53 49 53 50 48 56 50 53 53 49 56 50 48 53 50 53 50 49 56 50 48 53 49 53 50 48 56 0 128 255 0 128 255 0 128 255 0 128 255 0 128 255 0 128 255 0 128 255 0 128 255 0 128 255 0 128 255 0 128 255 56 50 48 53 49 53 50 48 56 50 53 53 49 56 50 48 53 50 53 50 49 56 50 48 53 49 53 50 48 56 50 53 53 49 56 50 48 53 50 53 50 49 56 50 48 53 49 53 50 48 56 50 53 53 49 56 50 48 53 50 53 50 49 56 50 48 53 49 53 50 48 56 50 53 53 49 56 50 48 53 50 53 50 49 56 50 48 53 49 53 50 48 56 50 53 53 49 56 50 48 53 50 53 50 49 56 50 48 53 49 53 50 48 56 50 53 53 49 56 50 48 53 50 53 50 49 56 50 48 53 49 53 50 48 56 50 53 53 49 56 50 48 53 50 53 50 49 56 50 48 53 49 53 50 48 56 50 53 53 0 128 255 0 128 255 0 128 255 0 128 255 0 128 255 0 128 255 0 128 255 0 128 255 0 128 255 0 128 255 0 128 255 53 49 53 50 48 56 50 53 53 49 56 50 48 53 50 53 50 49 56 50 48 53 49 53 50 48 56 50 53 53 49 56 50 48 53 50 53 50 49 56 50 48 53 49 53 50 48 56 50 53 53 49 56 50 48 53 50 53 50 49 56 50 48 53 49 53 50 48 56 50 53 53 49 56 50 48 53 50 53 50 49 56 50 48 53 49 53 50 48 56 50 53 53 49 56 50 48 53 50 53 50 49 56 50 48 53 49 53 50 48 56 50 53 53 49 56 50 48 53 50 53 50 49 56 50 48 53 49 53 50 48 56 50 53 53 49 56 50 48 53 50 53 50 49 56 50 48 53 49 53 50 48 56 50 53 53 49 56 50 0 128 255 0 128 255 0 128 255 0 128 255 0 128 255 0 128 255 0 128 255 0 128 255 0 128 255 0 128 255 0 128 255 50 48 56 50 53 53 49 56 50 48 53 50 53 50 49 56 50 48 53 49 53 50 48 56 50 53 53 49 56 50 48 53 50 53 50 49 56 50 48 53 49 53 50 48 56 50 53 53 49 56 50 48 53 50 53 50 49 56 50 48 53 49 53 50 48 56 50 53 53 49 56 50 48 53 50 53 50 49 56 50 48 53 49 53 50 48 56 50 53 53 49 56 50 48 53 50 53 50 49 56 50 48 53 49 53 50 48 56 50 53 53 49 56 50 48 53 50 53 50 49 56 50 48 53 49 53 50 48 56 50 53 53 49 56 50 48 53 50 53 50 49 56 50 48 53 49 53 50 48 56 50 53 53 49 56 50 48 53 50 0 128 255 0 128 255 0 128 255 0 128 255 0 128 255 0 128 255 0 128 255 0 128 255 0 128 255 0 128 255 0 128 255 50 53 53 49 56 50 48 53 50 53 50 49 56 50 48 53 49 53 50 48 56 50 53 53 49 56 50 48 53 50 53 50 49 56 50 48 53 49 53 50 48 56 50 53 53 49 56 50 48 53 50 53 50 49 56 50 48 53 49 53 50 48 56 50 53 53 49 56 50 48 53 50 53 50 49 56 50 48 53 49 53 50 48 56 50 53 53 49 56 50 48 53 50 53 50 49 56 50 48 53 49 53 50 48 56 50 53 53 49 56 50 48 53 50 53 50 49 56 50 48 53 49 53 50 48 56 50 53 53 49 56 50 48 53 50 53 50 49 56 50 48 53 49 53 50 48 56 50 53 53 49 56 50 48 53 50 53 50 49 0 128 255 0 128 255 0 128 255 0 128 255 0 128 255 0 128 255 0 128 255 0 128 255 0 128 255 0 128 255 0 128 255 49 56 50 48 53 50 53 50 49 56 50 48 53 49 53 50 48 56 50 53 53 49 56 50 48 53 50 53 50 49 56 50 48 53 49 53 50 48 56 50 53 53 49 56 50 48 53 50 53 50 49 56 50 48 53 49 53 50 48 56 50 53 53 49 56 50 48 53 50 53 50 49 56 50 48 53 49 53 50 48 56 50 53 53 49 56 50 48 53 50 53 50 49 56 50 48 53 49 53 50 48 56 50 53 53 49 56 50 48 53 50 53 50 49 56 50 48 53 49 53 50 48 56 50 53 53 49 56 50 48 53 50 53 50 49 56 50 48 53 49 53 50 48 56 50 53 53 49 56 50 48 53 50 53 50 49 56 50 48 0 128 255 0 128 255 0 128 255 0 128 255 0 128 255 0 128 255 0 128 255 0 128 255 0 128 255 0 128 255 0 128 255 48 53 50 53 50 49 56 50 48 53 49 53 50 48 56 50 53 53 49 56 50 48 53 50 53 50 49 56 50 48 53 49 53 50 48 56 50 53 53 49 56 50 48 53 50 53 50 49 56 50 48 53 49 53 50 48 56 50 53 53 49 56 50 48 53 50 53 50 49 56 50 48 53 49 53 50 48 56 50 53 53 49 56 50 48 53 50 53 50 49 56 50 48 53 49 53 50 48 56 50 53 53 49 56 50 48 53 50 53 50 49 56 50 48 53 49 53 50 48 56 50 53 53 49 56 50 48 53 50 53 50 49 56 50 48 53 49 53 50 48 56 50 53 53 49 56 50 48 53 50 53 50 49 56 50 48 53 49 53 0 128 255 0 128 255 0 128 255 0 128 255 0 128 255 0 128 255 0 128 255 0 128 255 0 128 255 0 128 255 0 128 255 53 50 49 56 50 48 53 49 53 50 48 56 50 53 53 49 56 50 48 53 50 53 50 49 56 50 48 53 49 53 50 48 56 50 53 53 49 56 50 48 53 50 53 50 49 56 50 48 53 49 53 50 48 56 50 53 53 49 56 50 48 53 50 53 50 49 56 50 48 53 49 53 50 48 56 50 53 53 49 56 50 48 53 50 53 50 49 56 50 48 53 49 53 50 48 56 50 53 53 49 56 50 48 53 50 53 50 49 56 50 48 53 49 53 50 48 56 50 53 53 49 56 50 48 53 50 53 50 49 56 50 48 53 49 53 50 48 56 50 53 53 49 56 50 48 53 50 53 50 49 56 50 48 53 49 53 50 48 56 0 128 255 0 128 255 0 128 255 0 128 255 0 128 255 0 128 255 0 128 255 0 128 255 0 128 255 0 128 255 0 128 255 56 50 48 53 49 53 50 48 56 50 53 53 49 56 50 48 53 50 53 50 49 56 50 48 53 49 53 50 48 56 50 53 53 49 56 50 48 53 50 53 50 49 56 50 48 53 49 53 50 48 56 50 53 53 49 56 50 48 53 50 53 50 49 56 50 48 53 49 53 50 48 56 50 53 53 49 56 50 48 53 50 53 50 49 56 50 48 53 49 53 50 48 56 50 53 53 49 56 50 48 53 50 53 50 49 56 50 48 53 49 53 50 48 56 50 53 53 49 56 50 48 53 50 53 50 49 56 50 48 53 49 53 50 48 56 50 53 53 49 56 50 48 53 50 53 50 49 56 50 48 53 49 53 50 48 56 50 53 53 0 128 255 0 128 255 0 128 255 0 128 255 0 128 255 0 128 255 0 128 255 0 128 255 0 128 255 0 128 255 0 128 255 53 49 53 50 48 56 50 53 53 49 56 50 48 53 50 53 50 49 56 50 48 53 49 53 50 48 56 50 53 53 49 56 50 48 53 50 53 50 49 56 50 48 53 49 53 50 48 56 50 53 53 49 56 50 48 53 50 53 50 49 56 50 48 53 49 53 50 48 56 50 53 53 49 56 50 48 53 50 53 50 49 56 50 48 53 49 53 50 48 56 50 53 53 49 56 50 48 53 50 53 50 49 56 50 48 53 49 53 50 48 56 50 53 53 49 56 50 48 53 50 53 50 49 56 50 48 53 49 53 50 48 56 50 53 53 49 56 50 48 53 50 53 50 49 56 50 48 53 49 53 50 48 56 50 53 53 49 56 50 0 128 255 0 128 255 0 128 255 0 128 255 0 128 255 0 128 255 0 128 255 0 128 255 0 128 255 0 128 255 0 128 255 50 48 56 50 53 53 49 56 50 48 53 50 53 50 49 56 50 48 53 49 53 50 48 56 50 53 53 49 56 50 48 53 50 53 50 49 56 50 48 53 49 53 50 48 56 50 53 53 49 56 50 48 53 50 53 50 49 56 50 48 53 49 53 50 48 56 50 53 53 49 56 50 48 53 50 53 50 49 56 50 48 53 49 53 50 48 56 50 53 53 49 56 50 48 53 50 53 50 49 56 50 48 53 49 53 50 48 56 50 53 53 49 56 50 48 53 50 53 50 49 56 50 48 53 49 53 50 48 56 50 53 53 49 56 50 48 53 50 53 50 49 56 50 48 53 49 53 50 48 56 50 53 53 49 56 50 48 53 50 0 128 255 0 128 255 0 128 255 0 128 255 0 128 255 0 128 255 0 128 255 0 128 255 0 128 255 0 128 255 0 128 255 50 53 53 49 56 50 48 53 50 53 50 49 56 50 48 53 49 53 50 48 56 50 53 53 49 56 50 48 53 50 53 50 49 56 50 48 53 49 53 50 48 56 50 53 53 49 56 50 48 53 50 53 50 49 56 50 48 53 49 53 50 48 56 50 53 53 49 56 50 48 53 50 53 50 49 56 50 48 53 49 53 50 48 56 50 53 53 49 56 50 48 53 50 53 50 49 56 50 48 53 49 53 50 48 56 50 53 53 49 56 50 48 53 50 53 50 49 56 50 48 53 49 53 50 48 56 50 53 53 49 56 50 48 53 50 53 50 49 56 50 48 53 49 53 50 48 56 50 53 53 49 56 50 48 53 50 53 50 49 56 50 48 53 49 53 50 48 56 50 53 53 49 56 50 48 53 50 53 50 49 56 50 48 53 49 53 50 48 56 50 53 53 49 56 50 48 53 50 53 50 49 56 50 48 53 49 53 50 48 56 50 53 53 49 56 50 48 53 50 53 50 49 56 50 48 53 49 53 50 48 56 50 53 53 49 56 50 48 53 50 53 50 49 56 50 48 53 49 53 50 48 56 50 53 53 49 56 50 48 53 50 53 50 49 56 50 48 53 49 53 50 48 56 50 53 53 49 56 50 48 53 50 53 50 49 56 50 48 53 49 53 50 48 56 50 53 53 49 56 50 48 53 50 53 50 49 56 50 48 53 49 53 50 48 56 50 53 53 49 56 50 48 53 50 53 50 49 56 50 48 53 49 53 50 48 56 50 53 53 49 56 50 48 53 50 53 50 49 56 50 48 53 49 53 50 48 56 50 53 53 49 56 50 48 53 50 53 50 49 56 50 48 53 49 53 50 48 56 50 53 53 49 56 50 48 53 50 53 50 49 56 50 48 53 49 53 50 48 56 50 53 53 49 56 50 48 53 50 53 50 49 56 50 48 53 49 53 50 48 56 50 53 53 49 56 50 48 53 50 53 50 49 56 50 48 53 49 53 50 48 56 50 53 53 49 56 50 48 53 50 53 50 49 56 50 48 53 49 53 50 48 56 50 53 53 49 56 50 